<svg width="16" height="14" viewBox="0 0 16 14" fill="none" xmlns="http://www.w3.org/2000/svg">
<path d="M9.35355 0.646447C9.15829 0.451184 8.84171 0.451184 8.64645 0.646447C8.45118 0.841709 8.45118 1.15829 8.64645 1.35355L9.35355 0.646447ZM15 7L15.3536 7.35355C15.5488 7.15829 15.5488 6.84171 15.3536 6.64645L15 7ZM8.64645 12.6464C8.45118 12.8417 8.45118 13.1583 8.64645 13.3536C8.84171 13.5488 9.15829 13.5488 9.35355 13.3536L8.64645 12.6464ZM1.35355 0.646447C1.15829 0.451184 0.841709 0.451184 0.646447 0.646447C0.451184 0.841709 0.451184 1.15829 0.646447 1.35355L1.35355 0.646447ZM7 7L7.35355 7.35355C7.54882 7.15829 7.54882 6.84171 7.35355 6.64645L7 7ZM0.646447 12.6464C0.451184 12.8417 0.451184 13.1583 0.646447 13.3536C0.841709 13.5488 1.15829 13.5488 1.35355 13.3536L0.646447 12.6464ZM8.64645 1.35355L14.6464 7.35355L15.3536 6.64645L9.35355 0.646447L8.64645 1.35355ZM14.6464 6.64645L8.64645 12.6464L9.35355 13.3536L15.3536 7.35355L14.6464 6.64645ZM0.646447 1.35355L6.64645 7.35355L7.35355 6.64645L1.35355 0.646447L0.646447 1.35355ZM6.64645 6.64645L0.646447 12.6464L1.35355 13.3536L7.35355 7.35355L6.64645 6.64645Z" fill="#09090B"/>
</svg>
