<svg width="24" height="24" viewBox="0 0 24 24" fill="none" xmlns="http://www.w3.org/2000/svg">
<path d="M20.6464 7.35355C20.8417 7.54882 21.1583 7.54882 21.3536 7.35355C21.5488 7.15829 21.5488 6.84171 21.3536 6.64645L20.6464 7.35355ZM16.6464 9.35355C16.8417 9.54882 17.1583 9.54882 17.3536 9.35355C17.5488 9.15829 17.5488 8.84171 17.3536 8.64645L16.6464 9.35355ZM20.3536 4.35355C20.5488 4.15829 20.5488 3.84171 20.3536 3.64645C20.1583 3.45118 19.8417 3.45118 19.6464 3.64645L20.3536 4.35355ZM13.5 15C13.5 17.4853 11.4853 19.5 9 19.5V20.5C12.0376 20.5 14.5 18.0376 14.5 15H13.5ZM9 19.5C6.51472 19.5 4.5 17.4853 4.5 15H3.5C3.5 18.0376 5.96243 20.5 9 20.5V19.5ZM4.5 15C4.5 12.5147 6.51472 10.5 9 10.5V9.5C5.96243 9.5 3.5 11.9624 3.5 15H4.5ZM9 10.5C10.2428 10.5 11.3671 11.0031 12.182 11.818L12.8891 11.1109C11.8943 10.1162 10.5186 9.5 9 9.5V10.5ZM12.182 11.818C12.9969 12.6329 13.5 13.7572 13.5 15H14.5C14.5 13.4814 13.8838 12.1057 12.8891 11.1109L12.182 11.818ZM18.6464 5.35355L20.6464 7.35355L21.3536 6.64645L19.3536 4.64645L18.6464 5.35355ZM18.6464 4.64645L15.6464 7.64645L16.3536 8.35355L19.3536 5.35355L18.6464 4.64645ZM15.6464 7.64645L12.182 11.1109L12.8891 11.818L16.3536 8.35355L15.6464 7.64645ZM15.6464 8.35355L16.6464 9.35355L17.3536 8.64645L16.3536 7.64645L15.6464 8.35355ZM19.3536 5.35355L20.3536 4.35355L19.6464 3.64645L18.6464 4.64645L19.3536 5.35355Z" fill="white"/>
</svg>
