<svg width="460" height="410" viewBox="0 0 460 410" fill="none" xmlns="http://www.w3.org/2000/svg">
<path d="M375.834 409.498H84.1673C78.642 409.498 73.3429 407.303 69.4359 403.396C65.5289 399.489 63.334 394.19 63.334 388.665V201.165H0.833984L215.98 5.58134C219.815 2.09129 224.815 0.157227 230.001 0.157227C235.186 0.157227 240.186 2.09129 244.021 5.58134L459.167 201.165H396.667V388.665C396.667 394.19 394.472 399.489 390.565 403.396C386.658 407.303 381.359 409.498 375.834 409.498ZM105.001 367.831H355.001V162.769L230.001 49.1438L105.001 162.769V367.831ZM146.667 284.498H313.334V326.165H146.667V284.498Z" fill="#FCFCFC"/>
</svg>
