<svg width="24" height="24" viewBox="0 0 24 24" fill="none" xmlns="http://www.w3.org/2000/svg">
<path d="M4 20H3.5C3.5 20.2761 3.72386 20.5 4 20.5V20ZM11 18L11.3536 18.3536L11 18ZM17.4142 4.41421L17.7678 4.06066L17.4142 4.41421ZM19.5858 6.58579L19.2322 6.93934L19.5858 6.58579ZM9.58579 19.4142L9.93934 19.7678L9.58579 19.4142ZM4.58579 14.4142L4.93934 14.7678L4.58579 14.4142ZM19.9393 6.23223L17.7678 4.06066L17.0607 4.76777L19.2322 6.93934L19.9393 6.23223ZM9.93934 19.7678L11.3536 18.3536L10.6464 17.6464L9.23223 19.0607L9.93934 19.7678ZM5.64645 12.6464L4.23223 14.0607L4.93934 14.7678L6.35355 13.3536L5.64645 12.6464ZM14.2322 4.06066L12.6464 5.64645L13.3536 6.35355L14.9393 4.76777L14.2322 4.06066ZM12.6464 5.64645L5.64645 12.6464L6.35355 13.3536L13.3536 6.35355L12.6464 5.64645ZM11.3536 18.3536L18.3536 11.3536L17.6464 10.6464L10.6464 17.6464L11.3536 18.3536ZM18.3536 11.3536L19.9393 9.76777L19.2322 9.06066L17.6464 10.6464L18.3536 11.3536ZM8.17157 19.5H6.5V20.5H8.17157V19.5ZM6.5 19.5H4V20.5H6.5V19.5ZM3.5 15.8284V17.5H4.5V15.8284H3.5ZM3.5 17.5V20H4.5V17.5H3.5ZM6.85355 19.6464L4.35355 17.1464L3.64645 17.8536L6.14645 20.3536L6.85355 19.6464ZM11.3536 17.6464L6.35355 12.6464L5.64645 13.3536L10.6464 18.3536L11.3536 17.6464ZM18.3536 10.6464L13.3536 5.64645L12.6464 6.35355L17.6464 11.3536L18.3536 10.6464ZM17.7678 4.06066C16.7915 3.08435 15.2085 3.08435 14.2322 4.06066L14.9393 4.76777C15.5251 4.18198 16.4749 4.18198 17.0607 4.76777L17.7678 4.06066ZM19.2322 6.93934C19.818 7.52513 19.818 8.47487 19.2322 9.06066L19.9393 9.76777C20.9156 8.79146 20.9157 7.20854 19.9393 6.23223L19.2322 6.93934ZM9.23223 19.0607C8.95093 19.342 8.5694 19.5 8.17157 19.5V20.5C8.83461 20.5 9.4705 20.2366 9.93934 19.7678L9.23223 19.0607ZM4.23223 14.0607C3.76339 14.5295 3.5 15.1654 3.5 15.8284H4.5C4.5 15.4306 4.65803 15.0491 4.93934 14.7678L4.23223 14.0607Z" fill="#09090B"/>
</svg>
