<svg width="24" height="24" viewBox="0 0 24 24" fill="none" xmlns="http://www.w3.org/2000/svg">
<path d="M18.5858 19.4142L19.1161 19.9445L18.5858 19.4142ZM19.5858 15.5858L20.1161 15.0555L19.5858 15.5858ZM19.5858 18.4142L20.1161 18.9445L19.5858 18.4142ZM15.6358 13.9095L15.2197 13.2855L15.6358 13.9095ZM14.9657 14.3562L15.3817 14.9802L14.9657 14.3562ZM4.58579 5.41421L4.05546 4.88388L4.58579 5.41421ZM14.6713 19.8627L14.9757 19.1773L14.6713 19.8627ZM3.45185 9.63309C3.86947 10.5735 5.18479 13.1788 8.003 15.997L9.06366 14.9363C6.40605 12.2787 5.18522 9.84051 4.82275 9.02429L3.45185 9.63309ZM8.003 15.997C10.8212 18.8152 13.4265 20.1305 14.3669 20.5482L14.9757 19.1773C14.1595 18.8148 11.7213 17.594 9.06366 14.9363L8.003 15.997ZM4.75 8.64226L4.75 6.82843L3.25 6.82843L3.25 8.64226H4.75ZM5.11612 5.94454L6.11612 4.94454L5.05546 3.88388L4.05546 4.88388L5.11612 5.94454ZM7.88388 4.94454L9.31029 6.37095L10.371 5.31029L8.94454 3.88388L7.88388 4.94454ZM9.46647 7.94821L9.01977 8.61826L10.2678 9.45031L10.7145 8.78026L9.46647 7.94821ZM15.3817 14.9802L16.0518 14.5335L15.2197 13.2855L14.5497 13.7322L15.3817 14.9802ZM17.629 14.6897L19.0555 16.1161L20.1161 15.0555L18.6897 13.629L17.629 14.6897ZM19.0555 17.8839L18.0555 18.8839L19.1161 19.9445L20.1161 18.9445L19.0555 17.8839ZM17.1716 19.25H15.3577V20.75H17.1716V19.25ZM8.9145 11.3977C9.30004 12.0501 9.86913 12.9298 10.4697 13.5303L11.5303 12.4697C11.0721 12.0114 10.5824 11.2718 10.2059 10.6346L8.9145 11.3977ZM10.4697 13.5303C11.0702 14.1309 11.9499 14.7 12.6023 15.0855L13.3654 13.7941C12.7282 13.4176 11.9886 12.9279 11.5303 12.4697L10.4697 13.5303ZM18.0555 18.8839C17.821 19.1183 17.5031 19.25 17.1716 19.25V20.75C17.9009 20.75 18.6004 20.4603 19.1161 19.9445L18.0555 18.8839ZM19.0555 16.1161C19.5436 16.6043 19.5436 17.3957 19.0555 17.8839L20.1161 18.9445C21.1901 17.8706 21.1901 16.1294 20.1161 15.0555L19.0555 16.1161ZM16.0518 14.5335C16.5476 14.203 17.2077 14.2684 17.629 14.6897L18.6897 13.629C17.7628 12.7021 16.3105 12.5583 15.2197 13.2855L16.0518 14.5335ZM14.5497 13.7322C14.1705 13.9849 13.7137 13.9999 13.3654 13.7941L12.6023 15.0855C13.4898 15.6099 14.5666 15.5237 15.3817 14.9802L14.5497 13.7322ZM9.01977 8.61826C8.47632 9.43344 8.39006 10.5102 8.9145 11.3977L10.2059 10.6346C10.0001 10.2863 10.0151 9.82948 10.2678 9.45031L9.01977 8.61826ZM6.11612 4.94454C6.60427 4.45639 7.39573 4.45639 7.88388 4.94454L8.94454 3.88388C7.8706 2.80994 6.1294 2.80994 5.05546 3.88388L6.11612 4.94454ZM4.75 6.82843C4.75 6.49691 4.8817 6.17896 5.11612 5.94454L4.05546 4.88388C3.53973 5.39961 3.25 6.09908 3.25 6.82843L4.75 6.82843ZM14.3669 20.5482C14.6945 20.6936 15.0346 20.75 15.3577 20.75V19.25C15.2076 19.25 15.0807 19.2239 14.9757 19.1773L14.3669 20.5482ZM9.31029 6.37095C9.73162 6.79228 9.79699 7.45243 9.46647 7.94821L10.7145 8.78026C11.4417 7.68955 11.2979 6.23722 10.371 5.31029L9.31029 6.37095ZM4.82275 9.02429C4.77614 8.91934 4.75 8.79236 4.75 8.64226H3.25C3.25 8.96539 3.30639 9.30554 3.45185 9.63309L4.82275 9.02429Z" fill="#09090B"/>
</svg>
