<svg width="20" height="20" viewBox="0 0 20 20" fill="none" xmlns="http://www.w3.org/2000/svg">
<path d="M7 9L8.00012 1M13 9L12.0001 1M17.0001 9V9C18.016 9 18.7613 8.04534 18.515 7.05982L17.3788 2.51495C17.1563 1.62461 16.3563 1 15.4385 1H12.0001M17.0001 9V17C17.0001 18.1046 16.1047 19 15.0001 19H12.0001M17.0001 9H3.00012M3.00012 9V9C1.98416 9 1.23871 8.04523 1.48513 7.05961L2.62137 2.5149C2.84396 1.62458 3.64392 1 4.56165 1H8.00012M3.00012 9V17C3.00012 18.1046 3.89555 19 5.00012 19H8.00012M12.0001 19V15C12.0001 13.8954 11.1047 13 10.0001 13V13C8.89555 13 8.00012 13.8954 8.00012 15V19M12.0001 19H8.00012M12.0001 1H8.00012" stroke="white" stroke-linejoin="round"/>
</svg>
