<svg width="18" height="19" viewBox="0 0 18 19" fill="none" xmlns="http://www.w3.org/2000/svg">
<path d="M5.5 1C5.5 0.723858 5.27614 0.5 5 0.5C4.72386 0.5 4.5 0.723858 4.5 1H5.5ZM13.5 1C13.5 0.723858 13.2761 0.5 13 0.5C12.7239 0.5 12.5 0.723858 12.5 1H13.5ZM6.35355 12.6464C6.15829 12.4512 5.84171 12.4512 5.64645 12.6464C5.45118 12.8417 5.45118 13.1583 5.64645 13.3536L6.35355 12.6464ZM8 15L7.64645 15.3536C7.84171 15.5488 8.15829 15.5488 8.35355 15.3536L8 15ZM12.3536 11.3536C12.5488 11.1583 12.5488 10.8417 12.3536 10.6464C12.1583 10.4512 11.8417 10.4512 11.6464 10.6464L12.3536 11.3536ZM15 17.5H3V18.5H15V17.5ZM1.5 16V7H0.5V16H1.5ZM1.5 7V5H0.5V7H1.5ZM16.5 5V7H17.5V5H16.5ZM16.5 7V16H17.5V7H16.5ZM17 6.5H1V7.5H17V6.5ZM4.5 1V3H5.5V1H4.5ZM12.5 1V3H13.5V1H12.5ZM5 2.5H3V3.5H5V2.5ZM15 2.5H13V3.5H15V2.5ZM13 2.5H5V3.5H13V2.5ZM5.64645 13.3536L7.64645 15.3536L8.35355 14.6464L6.35355 12.6464L5.64645 13.3536ZM8.35355 15.3536L12.3536 11.3536L11.6464 10.6464L7.64645 14.6464L8.35355 15.3536ZM3 17.5C2.17157 17.5 1.5 16.8284 1.5 16H0.5C0.5 17.3807 1.61929 18.5 3 18.5V17.5ZM15 18.5C16.3807 18.5 17.5 17.3807 17.5 16H16.5C16.5 16.8284 15.8284 17.5 15 17.5V18.5ZM17.5 5C17.5 3.61929 16.3807 2.5 15 2.5V3.5C15.8284 3.5 16.5 4.17157 16.5 5H17.5ZM1.5 5C1.5 4.17157 2.17157 3.5 3 3.5V2.5C1.61929 2.5 0.5 3.61929 0.5 5H1.5Z" fill="#09090B"/>
</svg>
