<svg width="18" height="18" viewBox="0 0 18 18" fill="none" xmlns="http://www.w3.org/2000/svg">
<path d="M1 7.90754C1 7.33081 1.24896 6.78216 1.68299 6.40238L7.68299 1.15238C8.43704 0.492586 9.56296 0.492588 10.317 1.15238L16.317 6.40238C16.751 6.78216 17 7.33081 17 7.90754V15C17 16.1046 16.1046 17 15 17H13C11.8954 17 11 16.1046 11 15V13C11 11.8954 10.1046 11 9 11V11C7.89543 11 7 11.8954 7 13V15C7 16.1046 6.10457 17 5 17H3C1.89543 17 1 16.1046 1 15V7.90754Z" stroke="#09090B" stroke-linejoin="round"/>
</svg>
