<svg width="18" height="18" viewBox="0 0 18 18" fill="none" xmlns="http://www.w3.org/2000/svg">
<path d="M5 3C5 4.10457 4.10457 5 3 5M5 3C5 1.89543 4.10457 1 3 1C1.89543 1 1 1.89543 1 3C1 4.10457 1.89543 5 3 5M5 3H13M3 5V13M13 3C13 4.10457 13.8954 5 15 5M13 3C13 1.89543 13.8954 1 15 1C16.1046 1 17 1.89543 17 3C17 4.10457 16.1046 5 15 5M3 13C1.89543 13 1 13.8954 1 15C1 16.1046 1.89543 17 3 17C4.10457 17 5 16.1046 5 15M3 13C4.10457 13 5 13.8954 5 15M5 15H13M13 15C13 16.1046 13.8954 17 15 17C16.1046 17 17 16.1046 17 15C17 13.8954 16.1046 13 15 13M13 15C13 13.8954 13.8954 13 15 13M15 13V5" stroke="#09090B" stroke-linejoin="round"/>
</svg>
